<svg width="33" height="33" viewBox="0 0 33 33" fill="none" xmlns="http://www.w3.org/2000/svg">
<path d="M15.8958 20.8116V14.6444L2 8.55898V25.86L15.8958 32V24.7685L12.8201 23.3495V27.4701L5.0483 24.0863V13.0343L12.8201 16.4727V19.5563L15.8958 20.8116Z" fill="black"/>
<path d="M17.1042 32V14.6444L31 8.55898V14.2896L27.9517 15.654V13.0343L20.2074 16.4727V27.4701L27.9517 24.0863V20.5387L24.9583 21.8213V18.765L31 16.2271V25.86L17.1042 32Z" fill="black"/>
<path d="M2 7.38556L16.4725 13.662L22.1297 11.1787L18.8617 9.54137L16.4725 10.7148L9.22254 7.38556L16.4725 4.08363L23.8049 7.38556L22.1297 8.06778L25.4527 9.75968L31 7.38556L16.4725 1L2 7.38556Z" fill="black"/>
<path d="M15.8958 20.8116V14.6444L2 8.55898V25.86L15.8958 32V24.7685L12.8201 23.3495V27.4701L5.0483 24.0863V13.0343L12.8201 16.4727V19.5563L15.8958 20.8116Z" stroke="black"/>
<path d="M17.1042 32V14.6444L31 8.55898V14.2896L27.9517 15.654V13.0343L20.2074 16.4727V27.4701L27.9517 24.0863V20.5387L24.9583 21.8213V18.765L31 16.2271V25.86L17.1042 32Z" stroke="black"/>
<path d="M2 7.38556L16.4725 13.662L22.1297 11.1787L18.8617 9.54137L16.4725 10.7148L9.22254 7.38556L16.4725 4.08363L23.8049 7.38556L22.1297 8.06778L25.4527 9.75968L31 7.38556L16.4725 1L2 7.38556Z" stroke="black"/>
</svg>
